<?xml version="1.0" standalone="no"?>
<!DOCTYPE svg PUBLIC "-//W3C//DTD SVG 20010904//EN"
 "http://www.w3.org/TR/2001/REC-SVG-20010904/DTD/svg10.dtd">
<svg version="1.0" xmlns="http://www.w3.org/2000/svg"
 width="476.000000pt" height="345.000000pt" viewBox="0 0 476.000000 345.000000"
 preserveAspectRatio="xMidYMid meet">
<metadata>
Created by potrace 1.16, written by Peter Selinger 2001-2019
</metadata>
<g transform="translate(0.000000,345.000000) scale(0.100000,-0.100000)"
fill="#000000" stroke="none">
<path d="M10 3431 c-14 -27 -14 -3385 0 -3412 11 -19 48 -19 2365 -19 2317 0
2354 0 2365 19 7 13 10 563 10 1706 0 1143 -3 1693 -10 1706 -11 19 -48 19
-2365 19 -2317 0 -2354 0 -2365 -19z m2028 -1343 c53 -143 93 -260 90 -263 -2
-1 -43 -14 -91 -27 l-89 -25 -8 21 c-4 12 -14 41 -21 64 -7 23 -15 42 -18 42
-4 0 -20 -42 -37 -92 l-30 -93 -74 -52 c-40 -29 -104 -82 -142 -120 -37 -37
-68 -65 -68 -62 0 8 206 581 225 627 l14 32 115 0 115 0 19 -52z m926 -355
c76 -170 141 -314 143 -320 4 -10 -11 -13 -54 -13 l-59 0 -113 250 c-63 138
-115 250 -116 248 -4 -5 -125 -270 -125 -274 0 -2 36 -4 80 -4 l81 0 24 -52
25 -53 -133 -3 -132 -3 -24 -54 -23 -55 -59 0 c-33 0 -59 1 -59 3 0 1 52 117
116 257 63 140 127 283 142 317 l27 63 60 0 61 0 138 -307z m304 -10 l-3 -318
-52 -3 -53 -3 0 320 0 321 55 0 55 0 -2 -317z m-1008 53 c-224 -94 -407 -235
-521 -403 l-50 -73 -99 0 c-78 0 -100 3 -100 14 0 16 88 136 144 195 158 167
418 285 636 289 l45 1 -55 -23z m-10 -277 c37 -101 64 -188 60 -192 -4 -4 -51
-6 -106 -5 l-99 3 -49 144 c-40 118 -46 145 -35 152 104 66 145 89 153 86 5
-2 39 -86 76 -188z"/>
</g>
</svg>
