<?xml version="1.0" standalone="no"?>
<!DOCTYPE svg PUBLIC "-//W3C//DTD SVG 20010904//EN"
 "http://www.w3.org/TR/2001/REC-SVG-20010904/DTD/svg10.dtd">
<svg version="1.0" xmlns="http://www.w3.org/2000/svg"
 width="184.000000pt" height="93.000000pt" viewBox="0 0 184.000000 93.000000"
 preserveAspectRatio="xMidYMid meet">
<metadata>
Created by potrace 1.16, written by Peter Selinger 2001-2019
</metadata>
<g transform="translate(0.000000,93.000000) scale(0.100000,-0.100000)"
fill="#FFFFFF" stroke="none">
<path d="M1573 898 c3 -18 8 -43 11 -55 l5 -22 -39 20 c-35 18 -44 19 -77 9
-21 -7 -50 -26 -65 -42 -28 -30 -36 -44 -18 -33 5 3 8 0 5 -7 -3 -7 8 -40 24
-73 19 -39 30 -52 30 -39 1 12 -8 33 -19 47 -13 16 -16 28 -10 32 5 3 10 0 10
-8 0 -23 34 -47 68 -47 33 0 92 42 92 66 0 8 10 14 25 14 19 0 26 7 31 28 9
34 22 43 54 37 16 -3 34 3 52 18 26 21 27 23 11 55 -12 25 -22 32 -44 32 -16
0 -29 -6 -31 -15 -3 -13 -6 -13 -32 0 -15 8 -42 15 -58 15 -29 0 -30 -2 -25
-32z"/>
</g>
</svg>
